<?xml version="1.0" encoding="UTF-8" standalone="no"?>
<!-- Created with Inkscape (http://www.inkscape.org/) -->

<svg
   xmlns:dc="http://purl.org/dc/elements/1.1/"
   xmlns:cc="http://creativecommons.org/ns#"
   xmlns:rdf="http://www.w3.org/1999/02/22-rdf-syntax-ns#"
   xmlns:svg="http://www.w3.org/2000/svg"
   xmlns="http://www.w3.org/2000/svg"
   xmlns:sodipodi="http://sodipodi.sourceforge.net/DTD/sodipodi-0.dtd"
   xmlns:inkscape="http://www.inkscape.org/namespaces/inkscape"
   width="64"
   height="64"
   viewBox="0 0 64.000001 64.000001"
   id="svg2"
   version="1.1"
   inkscape:version="0.91 r13725"
   sodipodi:docname="github.svg">
  <defs
     id="defs4" />
  <sodipodi:namedview
     id="base"
     pagecolor="#ffffff"
     bordercolor="#666666"
     borderopacity="1.0"
     inkscape:pageopacity="0.0"
     inkscape:pageshadow="2"
     inkscape:zoom="4.3207895"
     inkscape:cx="-20.214795"
     inkscape:cy="30.421158"
     inkscape:document-units="px"
     inkscape:current-layer="layer1"
     showgrid="false"
     units="px"
     inkscape:window-width="1280"
     inkscape:window-height="961"
     inkscape:window-x="-8"
     inkscape:window-y="-8"
     inkscape:window-maximized="1">
    <sodipodi:guide
       position="0,0"
       orientation="0,64"
       id="guide4136" />
    <sodipodi:guide
       position="64.000001,0"
       orientation="-64,0"
       id="guide4138" />
    <sodipodi:guide
       position="64.000001,64.000001"
       orientation="0,-64"
       id="guide4140" />
    <sodipodi:guide
       position="0,64.000001"
       orientation="64,0"
       id="guide4142" />
  </sodipodi:namedview>
  <metadata
     id="metadata7">
    <rdf:RDF>
      <cc:Work
         rdf:about="">
        <dc:format>image/svg+xml</dc:format>
        <dc:type
           rdf:resource="http://purl.org/dc/dcmitype/StillImage" />
        <dc:title />
      </cc:Work>
    </rdf:RDF>
  </metadata>
  <g
     inkscape:label="Calque 1"
     inkscape:groupmode="layer"
     id="layer1"
     transform="translate(0,-988.36216)">
    <path
       id="path4159"
       d="m 20.514889,1013.6246 c -0.106719,-0.1068 -0.106719,-0.2135 0,-0.3202 0.213439,-0.2134 0.480238,-0.2935 0.800397,-0.2401 0.320159,0.054 0.506918,0.1067 0.560278,0.1601 0.373518,0.16 0.787049,0.5202 1.240594,1.0806 0.453544,0.5602 0.813729,0.9471 1.080555,1.1606 1.280635,1.0672 2.58795,1.1471 3.921944,0.24 0.10672,-0.3735 0.280132,-0.6936 0.520237,-0.9604 0.240105,-0.2668 0.466892,-0.4536 0.680358,-0.5603 0.213466,-0.1067 0.586984,-0.2668 1.120555,-0.4802 -1.760872,-0.1601 -3.188253,-0.4669 -4.282142,-0.9206 -1.093889,-0.4535 -1.960992,-1.0271 -2.601309,-1.7208 -0.853757,-0.9605 -1.374022,-2.2144 -1.560795,-3.7618 -0.186773,-1.5474 -0.06671,-2.9614 0.360199,-4.2421 0.32016,-0.8004 0.773718,-1.5208 1.360674,-2.1611 -0.426878,-1.33399 -0.346838,-2.85474 0.240119,-4.56223 1.707513,0.10673 3.254947,0.69368 4.642301,1.76086 2.667988,-0.69368 5.442696,-0.72031 8.324125,-0.0799 0.373518,-0.26683 0.947129,-0.60033 1.720832,-1.0005 0.773702,-0.40024 1.747525,-0.62704 2.921467,-0.68041 0.21344,0.58695 0.360186,1.28064 0.44024,2.08105 0.08006,0.80041 0.04004,1.54746 -0.12004,2.24109 1.227275,1.2807 1.867592,2.9882 1.920952,5.1226 0,1.7075 -0.293479,3.1215 -0.880436,4.2421 -0.586958,1.1205 -1.627473,2.0543 -3.121546,2.8014 -1.013836,0.4802 -2.347831,0.7737 -4.001983,0.8804 0.747036,0.3735 1.293981,0.7604 1.640832,1.1606 0.346853,0.4002 0.573639,1.0272 0.680359,1.8809 l 0,2.5212 0.08004,2.4413 c 0.160079,0.2668 0.346838,0.4936 0.560278,0.6804 0.213438,0.1867 0.400198,0.3201 0.560277,0.4001 0.16008,0.08 0.213439,0.2002 0.16008,0.3603 -0.05336,0.1601 -0.266798,0.2401 -0.640317,0.2401 -0.907117,0 -1.627474,-0.3202 -2.161072,-0.9605 -0.160079,-0.2668 -0.240118,-0.587 -0.240118,-0.9605 l 0,-3.8419 c 0,-0.4269 -0.10672,-0.7337 -0.32016,-0.9204 -0.213438,-0.1869 -0.426877,-0.307 -0.640316,-0.3602 l 0,5.0424 c 0,0.9071 0.106719,1.4941 0.320159,1.7609 0.213439,0.2668 0.346837,0.5336 0.400198,0.8004 0.05336,0.054 0.01335,0.093 -0.120039,0.1201 -0.133385,0.027 -0.360172,-0.013 -0.680358,-0.1201 -0.693678,-0.1601 -1.173915,-0.5203 -1.440713,-1.0805 -0.266799,-0.5603 -0.400199,-1.1607 -0.400199,-1.801 l 0,-4.9624 -1.040516,0 0,4.9624 c 0,0.6403 -0.1334,1.254 -0.400198,1.8409 -0.373518,0.747 -1.067196,1.1473 -2.081031,1.2006 -0.160079,-0.053 -0.240119,-0.1066 -0.240119,-0.1601 0.05335,-0.053 0.213438,-0.32 0.480238,-0.8003 0.05336,-0.1067 0.120065,-0.3201 0.200119,-0.6403 0.08006,-0.3202 0.120067,-0.6938 0.120039,-1.1206 l 0,-5.0425 c -0.213438,0.053 -0.413545,0.1733 -0.600318,0.3602 -0.186773,0.1868 -0.280159,0.4936 -0.280159,0.9204 l 0,3.842 c 0,0.3735 -0.08004,0.6937 -0.240119,0.9604 -0.480238,0.6403 -1.200595,0.9605 -2.161071,0.9605 -0.373519,0 -0.586957,-0.08 -0.640317,-0.2401 -0.05336,-0.1067 -0.04001,-0.2001 0.04004,-0.2801 0.08006,-0.08 0.20012,-0.1735 0.360199,-0.2802 0.160079,-0.1067 0.266799,-0.1868 0.320158,-0.2401 0.21344,-0.1601 0.373519,-0.3736 0.480239,-0.6403 0.160079,-0.2135 0.200093,-0.7738 0.120038,-1.6809 -0.08006,-0.9071 -0.0934,-1.494 -0.04004,-1.7609 -1.387355,0.4802 -2.801389,0.2402 -4.242102,-0.7203 -0.426879,-0.4268 -0.853757,-1.0405 -1.280635,-1.8409 -0.320158,-0.5869 -0.960475,-1.2807 -1.920951,-2.0811 z"
       inkscape:connector-curvature="0"
       sodipodi:nodetypes="ccccccccscccscccccccsccscccccccssscssccscccccsccsccccscccsscscccccsccccc"
       style="fill:#1e1e1e;fill-opacity:1" />
    <g
       style="font-style:normal;font-weight:normal;font-size:11.33589077px;line-height:89.99999762%;font-family:sans-serif;letter-spacing:0px;word-spacing:0px;fill:#1e1e1e;fill-opacity:1;stroke:none;stroke-width:1px;stroke-linecap:butt;stroke-linejoin:miter;stroke-opacity:1"
       id="text4168">
      <path
         d="m 10.725041,1039.1052 q 0.06089,-0.5037 -0.166052,-0.8413 -0.226939,-0.3432 -0.9409666,-0.6532 -0.7140272,-0.3099 -1.0904137,-0.6365 -0.7915186,-0.6808 -0.7140272,-1.7159 0.077491,-0.9742 0.7915185,-1.6162 0.7195624,-0.6476 1.732485,-0.6255 0.974176,0.022 1.538756,0.714 0.56458,0.6864 0.492624,1.727 l -0.996317,0 q 0.05535,-0.7639 -0.226939,-1.1569 -0.28229,-0.3985 -0.863475,-0.4096 -0.5977904,-0.011 -1.0018524,0.3654 -0.4040619,0.3708 -0.470483,0.9852 -0.055351,0.4539 0.2103336,0.8026 0.2656845,0.3432 0.9243608,0.6255 0.664211,0.2767 1.040598,0.5867 0.830264,0.6808 0.736168,1.8376 -0.08303,0.9853 -0.797054,1.6052 -0.708492,0.6199 -1.7823007,0.5978 -1.0129224,-0.022 -1.6217829,-0.7085 -0.6088604,-0.6863 -0.5535095,-1.7435 l 0.9963171,0.01 q -0.060886,0.714 0.2656846,1.1402 0.3265706,0.4262 0.9686416,0.4373 0.6033254,0.022 1.0239928,-0.3376 0.426202,-0.3598 0.503693,-0.9853 z"
         style="font-style:italic;font-variant:normal;font-weight:normal;font-stretch:normal;font-size:11.33587456px;line-height:89.99999762%;font-family:'Roboto Condensed';-inkscape-font-specification:'Roboto Condensed, Italic';text-align:center;writing-mode:lr-tb;text-anchor:middle;fill:#1e1e1e;fill-opacity:1"
         id="path4146" />
      <path
         d="m 15.219539,1041.2971 q -1.007388,-0.022 -1.577502,-0.7196 -0.56458,-0.6974 -0.581185,-1.9096 -0.0055,-0.404 0.04428,-0.8026 l 0.232474,-1.5055 q 0.276755,-1.6052 1.084879,-2.4853 0.813659,-0.8856 2.047985,-0.8579 0.946501,0.022 1.500011,0.6255 0.553509,0.6033 0.642071,1.7158 l 0.0166,0.2989 q 0,0.4096 -0.04982,0.8082 l -0.238009,1.5332 q -0.28229,1.6107 -1.084878,2.4686 -0.802589,0.858 -2.036915,0.8303 z m 2.374555,-4.8543 0.04982,-0.5369 q 0.05535,-0.9686 -0.260149,-1.4612 -0.315501,-0.4982 -0.974177,-0.5203 -0.824729,-0.028 -1.356098,0.5922 -0.531369,0.6144 -0.736168,1.8321 l -0.238009,1.5997 -0.03875,0.4483 q -0.05535,0.9465 0.26015,1.4668 0.321035,0.5148 0.979712,0.5369 1.621782,0.05 2.05352,-2.2638 l 0.260149,-1.6938 z"
         style="font-style:italic;font-variant:normal;font-weight:normal;font-stretch:normal;font-size:11.33587456px;line-height:89.99999762%;font-family:'Roboto Condensed';-inkscape-font-specification:'Roboto Condensed, Italic';text-align:center;writing-mode:lr-tb;text-anchor:middle;fill:#1e1e1e;fill-opacity:1"
         id="path4148" />
      <path
         d="m 25.481605,1033.1273 -0.968642,5.6735 q -0.160517,1.1845 -0.90222,1.8598 -0.741703,0.6697 -1.865327,0.6476 -1.068273,-0.022 -1.621783,-0.6864 -0.547974,-0.6697 -0.420667,-1.8155 l 0.963106,-5.679 0.985247,0 -0.963106,5.6845 q -0.03875,0.3322 -0.0055,0.62 0.0941,0.9686 1.118089,1.0018 0.702957,0.028 1.140229,-0.3653 0.437273,-0.3985 0.570115,-1.19 l 0.974177,-5.751 0.996317,0 z"
         style="font-style:italic;font-variant:normal;font-weight:normal;font-stretch:normal;font-size:11.33587456px;line-height:89.99999762%;font-family:'Roboto Condensed';-inkscape-font-specification:'Roboto Condensed, Italic';text-align:center;writing-mode:lr-tb;text-anchor:middle;fill:#1e1e1e;fill-opacity:1"
         id="path4150" />
      <path
         d="m 28.542513,1037.9262 -1.389309,0 -0.570115,3.2602 -0.990782,0 1.394844,-8.0591 2.131012,0.01 q 1.040598,0.033 1.560897,0.6698 0.520298,0.6365 0.415132,1.7048 -0.07196,0.7694 -0.481554,1.3284 -0.409597,0.5591 -1.112554,0.8746 l 0.935431,3.404 -0.0055,0.072 -1.062738,0 -0.824729,-3.2602 z m -1.239861,-0.869 1.145764,0.011 q 0.525834,-0.011 0.924361,-0.2823 0.404062,-0.2712 0.59779,-0.7638 0.193729,-0.4982 0.132843,-1.0794 -0.04428,-0.4207 -0.304431,-0.6642 -0.254614,-0.2491 -0.708492,-0.2712 l -1.256466,-0.01 -0.531369,3.0554 z"
         style="font-style:italic;font-variant:normal;font-weight:normal;font-stretch:normal;font-size:11.33587456px;line-height:89.99999762%;font-family:'Roboto Condensed';-inkscape-font-specification:'Roboto Condensed, Italic';text-align:center;writing-mode:lr-tb;text-anchor:middle;fill:#1e1e1e;fill-opacity:1"
         id="path4152" />
      <path
         d="m 36.789803,1038.6237 q -0.182658,1.262 -0.940966,1.9871 -0.752773,0.7195 -1.909608,0.6863 -0.642071,-0.017 -1.112554,-0.3376 -0.470483,-0.3211 -0.725098,-0.9299 -0.249079,-0.6089 -0.260149,-1.3561 -0.0055,-0.393 0.04428,-0.7694 l 0.221403,-1.4225 q 0.26015,-1.655 1.095949,-2.5738 0.8358,-0.9189 2.081196,-0.8912 1.029528,0.017 1.566432,0.7306 0.542439,0.7085 0.492623,1.9761 l -0.996317,-0.01 q 0.02214,-0.6863 -0.08856,-1.0461 -0.105167,-0.3598 -0.354246,-0.5646 -0.24908,-0.2103 -0.680817,-0.2214 -0.830264,-0.028 -1.372704,0.631 -0.542439,0.6532 -0.741702,1.9594 l -0.221404,1.4336 q -0.08303,0.5812 -0.05535,1.0572 0.04428,0.7251 0.343176,1.0904 0.30443,0.3654 0.819194,0.382 0.725097,0.028 1.16237,-0.382 0.442807,-0.4096 0.658676,-1.4225 l 0.974177,-0.011 z"
         style="font-style:italic;font-variant:normal;font-weight:normal;font-stretch:normal;font-size:11.33587456px;line-height:89.99999762%;font-family:'Roboto Condensed';-inkscape-font-specification:'Roboto Condensed, Italic';text-align:center;writing-mode:lr-tb;text-anchor:middle;fill:#1e1e1e;fill-opacity:1"
         id="path4154" />
      <path
         d="m 42.169916,1037.4613 -2.762013,0 -0.498158,2.8561 3.221425,0 -0.154983,0.869 -4.206672,0 1.394844,-8.0591 4.162392,0 -0.154983,0.8745 -3.166074,0 -0.453878,2.5905 2.767547,0 -0.149447,0.869 z"
         style="font-style:italic;font-variant:normal;font-weight:normal;font-stretch:normal;font-size:11.33587456px;line-height:89.99999762%;font-family:'Roboto Condensed';-inkscape-font-specification:'Roboto Condensed, Italic';text-align:center;writing-mode:lr-tb;text-anchor:middle;fill:#1e1e1e;fill-opacity:1"
         id="path4156" />
      <path
         d="m 48.385826,1041.2971 q -1.007387,-0.022 -1.577502,-0.7196 -0.564579,-0.6974 -0.581185,-1.9096 -0.0055,-0.404 0.04428,-0.8026 l 0.232474,-1.5055 q 0.276755,-1.6052 1.084879,-2.4853 0.813659,-0.8856 2.047985,-0.8579 0.946501,0.022 1.500011,0.6255 0.553509,0.6033 0.642071,1.7158 l 0.0166,0.2989 q 0,0.4096 -0.04982,0.8082 l -0.238009,1.5332 q -0.28229,1.6107 -1.084879,2.4686 -0.802588,0.858 -2.036915,0.8303 z m 2.374556,-4.8543 0.04982,-0.5369 q 0.05535,-0.9686 -0.260149,-1.4612 -0.315501,-0.4982 -0.974177,-0.5203 -0.824729,-0.028 -1.356098,0.5922 -0.531369,0.6144 -0.736168,1.8321 l -0.238009,1.5997 -0.03875,0.4483 q -0.05535,0.9465 0.26015,1.4668 0.321035,0.5148 0.979712,0.5369 1.621782,0.05 2.05352,-2.2638 l 0.260149,-1.6938 z"
         style="font-style:italic;font-variant:normal;font-weight:normal;font-stretch:normal;font-size:11.33587456px;line-height:89.99999762%;font-family:'Roboto Condensed';-inkscape-font-specification:'Roboto Condensed, Italic';text-align:center;writing-mode:lr-tb;text-anchor:middle;fill:#1e1e1e;fill-opacity:1"
         id="path4158" />
      <path
         d="m 57.629438,1041.1864 -0.968642,0 -2.06459,-6.2547 -1.084879,6.2547 -0.996317,0 1.394844,-8.0591 0.968642,0 2.070125,6.2823 1.090414,-6.2823 0.985247,0 -1.394844,8.0591 z"
         style="font-style:italic;font-variant:normal;font-weight:normal;font-stretch:normal;font-size:11.33587456px;line-height:89.99999762%;font-family:'Roboto Condensed';-inkscape-font-specification:'Roboto Condensed, Italic';text-align:center;writing-mode:lr-tb;text-anchor:middle;fill:#1e1e1e;fill-opacity:1"
         id="path4160" />
      <path
         d="m 21.191906,1050.3813 q -0.232474,0.3155 -0.536904,0.5369 -0.819194,0.5978 -1.964959,0.5812 -1.035063,-0.011 -1.627318,-0.703 -0.592255,-0.6919 -0.625466,-1.8708 -0.01107,-0.4041 0.03875,-0.8082 l 0.249079,-1.5885 q 0.254615,-1.5941 1.012923,-2.4465 0.797053,-0.8912 2.108871,-0.8635 1.040598,0.033 1.588572,0.6863 0.55351,0.6532 0.531369,1.7934 l -0.985247,-0.01 q 0,-0.8192 -0.309965,-1.2011 -0.30443,-0.382 -0.874545,-0.3986 -0.824729,-0.039 -1.350563,0.548 -0.525834,0.5867 -0.730633,1.8709 l -0.254614,1.6882 -0.03321,0.4539 0,0.3819 q 0.08856,1.5719 1.300748,1.5941 0.437272,0.011 0.780448,-0.1273 0.343176,-0.1439 0.680817,-0.4041 l 0.337641,-1.8598 -1.43359,0 0.154983,-0.8635 2.407766,0 -0.464948,3.0056 z"
         style="font-style:italic;font-variant:normal;font-weight:normal;font-stretch:normal;font-size:11.33587456px;line-height:89.99999762%;font-family:'Roboto Condensed';-inkscape-font-specification:'Roboto Condensed, Italic';text-align:center;writing-mode:lr-tb;text-anchor:middle;fill:#1e1e1e;fill-opacity:1"
         id="path4162" />
      <path
         d="m 23.655023,1051.3887 -0.990782,0 1.40038,-8.0591 0.990782,0 -1.40038,8.0591 z"
         style="font-style:italic;font-variant:normal;font-weight:normal;font-stretch:normal;font-size:11.33587456px;line-height:89.99999762%;font-family:'Roboto Condensed';-inkscape-font-specification:'Roboto Condensed, Italic';text-align:center;writing-mode:lr-tb;text-anchor:middle;fill:#1e1e1e;fill-opacity:1"
         id="path4164" />
      <path
         d="m 31.099726,1044.2041 -2.05352,0 -1.245397,7.1846 -0.990782,0 1.245397,-7.1846 -2.053521,0 0.154983,-0.8745 5.097822,0 -0.154982,0.8745 z"
         style="font-style:italic;font-variant:normal;font-weight:normal;font-stretch:normal;font-size:11.33587456px;line-height:89.99999762%;font-family:'Roboto Condensed';-inkscape-font-specification:'Roboto Condensed, Italic';text-align:center;writing-mode:lr-tb;text-anchor:middle;fill:#1e1e1e;fill-opacity:1"
         id="path4166" />
      <path
         d="m 36.180944,1051.3887 -0.990782,0 0.647606,-3.7251 -3.138399,0 -0.647606,3.7251 -0.990782,0 1.394844,-8.0591 0.990782,0 -0.603326,3.465 3.143934,0 0.597791,-3.465 0.996317,0 -1.400379,8.0591 z"
         style="font-style:italic;font-variant:normal;font-weight:normal;font-stretch:normal;font-size:11.33587456px;line-height:89.99999762%;font-family:'Roboto Condensed';-inkscape-font-specification:'Roboto Condensed, Italic';text-align:center;writing-mode:lr-tb;text-anchor:middle;fill:#1e1e1e;fill-opacity:1"
         id="path4168" />
      <path
         d="m 44.079523,1043.3296 -0.968641,5.6735 q -0.160518,1.1845 -0.902221,1.8598 -0.741703,0.6697 -1.865327,0.6476 -1.068273,-0.022 -1.621783,-0.6864 -0.547974,-0.6697 -0.420667,-1.8155 l 0.963107,-5.679 0.985247,0 -0.963107,5.6845 q -0.03875,0.3321 -0.0055,0.62 0.0941,0.9686 1.118089,1.0018 0.702957,0.028 1.14023,-0.3653 0.437272,-0.3985 0.570114,-1.19 l 0.974177,-5.751 0.996317,0 z"
         style="font-style:italic;font-variant:normal;font-weight:normal;font-stretch:normal;font-size:11.33587456px;line-height:89.99999762%;font-family:'Roboto Condensed';-inkscape-font-specification:'Roboto Condensed, Italic';text-align:center;writing-mode:lr-tb;text-anchor:middle;fill:#1e1e1e;fill-opacity:1"
         id="path4170" />
      <path
         d="m 44.190226,1051.3887 1.394843,-8.0591 2.164223,0.01 q 0.974176,0.028 1.450194,0.5757 0.481554,0.5479 0.404062,1.5221 -0.09963,1.1292 -1.317352,1.738 0.442807,0.1938 0.658676,0.6919 0.221404,0.4982 0.166053,1.1569 -0.08856,1.0904 -0.774913,1.7325 -0.680817,0.642 -1.743555,0.6365 l -2.402231,0 z m 1.643923,-3.7694 -0.503694,2.9004 1.284142,0.011 q 0.752773,-0.011 1.17344,-0.5811 0.420667,-0.5757 0.354246,-1.4281 -0.07749,-0.8524 -0.874545,-0.8967 l -1.433589,-0.01 z m 0.143912,-0.8524 1.212186,0.011 q 0.453878,-0.011 0.797054,-0.2547 0.348711,-0.249 0.509228,-0.6808 0.160518,-0.4372 0.105167,-0.8967 -0.08856,-0.7029 -0.874545,-0.7361 l -1.300747,-0.01 -0.448343,2.5628 z"
         style="font-style:italic;font-variant:normal;font-weight:normal;font-stretch:normal;font-size:11.33587456px;line-height:89.99999762%;font-family:'Roboto Condensed';-inkscape-font-specification:'Roboto Condensed, Italic';text-align:center;writing-mode:lr-tb;text-anchor:middle;fill:#1e1e1e;fill-opacity:1"
         id="path4172" />
    </g>
    <flowRoot
       xml:space="preserve"
       id="flowRoot4174"
       style="fill:black;stroke:none;stroke-opacity:1;stroke-width:1px;stroke-linejoin:miter;stroke-linecap:butt;fill-opacity:1;font-family:sans-serif;font-style:normal;font-weight:normal;font-size:40px;line-height:125%;letter-spacing:0px;word-spacing:0px"><flowRegion
         id="flowRegion4176"><rect
           id="rect4178"
           width="145.32317"
           height="45.82262"
           x="79.862282"
           y="43.052517" /></flowRegion><flowPara
         id="flowPara4180" /></flowRoot>  </g>
</svg>
