<?xml version="1.0" encoding="UTF-8" standalone="no"?>
<!-- Created with Inkscape (http://www.inkscape.org/) -->

<svg
   xmlns:dc="http://purl.org/dc/elements/1.1/"
   xmlns:cc="http://creativecommons.org/ns#"
   xmlns:rdf="http://www.w3.org/1999/02/22-rdf-syntax-ns#"
   xmlns:svg="http://www.w3.org/2000/svg"
   xmlns="http://www.w3.org/2000/svg"
   xmlns:sodipodi="http://sodipodi.sourceforge.net/DTD/sodipodi-0.dtd"
   xmlns:inkscape="http://www.inkscape.org/namespaces/inkscape"
   width="64"
   height="64"
   viewBox="0 0 64.000001 64.000001"
   id="svg2"
   version="1.1"
   inkscape:version="0.91 r13725"
   sodipodi:docname="signup.svg">
  <defs
     id="defs4" />
  <sodipodi:namedview
     id="base"
     pagecolor="#ffffff"
     bordercolor="#666666"
     borderopacity="1.0"
     inkscape:pageopacity="0.0"
     inkscape:pageshadow="2"
     inkscape:zoom="4.3207895"
     inkscape:cx="26.148574"
     inkscape:cy="35.293642"
     inkscape:document-units="px"
     inkscape:current-layer="layer1"
     showgrid="false"
     units="px"
     inkscape:window-width="1280"
     inkscape:window-height="961"
     inkscape:window-x="-8"
     inkscape:window-y="-8"
     inkscape:window-maximized="1">
    <sodipodi:guide
       position="0,0"
       orientation="0,64"
       id="guide4136" />
    <sodipodi:guide
       position="64.000001,0"
       orientation="-64,0"
       id="guide4138" />
    <sodipodi:guide
       position="64.000001,64.000001"
       orientation="0,-64"
       id="guide4140" />
    <sodipodi:guide
       position="0,64.000001"
       orientation="64,0"
       id="guide4142" />
  </sodipodi:namedview>
  <metadata
     id="metadata7">
    <rdf:RDF>
      <cc:Work
         rdf:about="">
        <dc:format>image/svg+xml</dc:format>
        <dc:type
           rdf:resource="http://purl.org/dc/dcmitype/StillImage" />
        <dc:title></dc:title>
      </cc:Work>
    </rdf:RDF>
  </metadata>
  <g
     inkscape:label="Calque 1"
     inkscape:groupmode="layer"
     id="layer1"
     transform="translate(0,-988.36216)">
    <g
       style="font-style:normal;font-weight:normal;font-size:10.73768902px;line-height:89.99999762%;font-family:sans-serif;letter-spacing:0px;word-spacing:0px;fill:#000000;fill-opacity:1;stroke:none;stroke-width:1px;stroke-linecap:butt;stroke-linejoin:miter;stroke-opacity:1"
       id="text4144">
      <path
         d="m 7.6311285,1039.2439 q -0.1730183,1.1954 -0.8913067,1.8822 -0.7130455,0.6816 -1.8088285,0.6501 -0.6081858,-0.016 -1.0538392,-0.3198 -0.4456534,-0.3041 -0.6868305,-0.8808 -0.2359341,-0.5767 -0.2464201,-1.2845 -0.00524,-0.3723 0.041944,-0.7288 l 0.2097193,-1.3474 q 0.2464201,-1.5677 1.0381102,-2.438 0.7916902,-0.8704 1.9713609,-0.8442 0.9751945,0.016 1.4837636,0.6921 0.5138122,0.6711 0.4666253,1.8718 l -0.9437366,-0.01 q 0.020972,-0.6501 -0.083888,-0.9909 -0.099617,-0.3408 -0.3355507,-0.5348 -0.2359342,-0.1992 -0.6448867,-0.2097 -0.7864472,-0.026 -1.3002593,0.5977 -0.5138121,0.6187 -0.7025594,1.856 l -0.2097193,1.3579 q -0.078645,0.5506 -0.05243,1.0015 0.041944,0.6868 0.3250648,1.0328 0.288364,0.3461 0.7759612,0.3618 0.6868305,0.026 1.101026,-0.3618 0.4194385,-0.388 0.6239148,-1.3474 l 0.9227646,-0.011 z"
         style="font-style:italic;font-variant:normal;font-weight:normal;font-stretch:normal;font-size:10.73762512px;line-height:89.99999762%;font-family:'Roboto Condensed';-inkscape-font-specification:'Roboto Condensed, Italic';text-align:center;writing-mode:lr-tb;text-anchor:middle"
         id="path4159" />
      <path
         d="m 11.353645,1038.5833 -1.315988,0 -0.5400271,3.0881 -0.9384936,0 1.3212312,-7.6338 2.0185475,0.01 q 0.985681,0.032 1.478521,0.6345 0.49284,0.6029 0.393223,1.6148 -0.06816,0.7288 -0.456139,1.2583 -0.387981,0.5295 -1.053839,0.8284 l 0.886064,3.2244 -0.0052,0.068 -1.006653,0 -0.781204,-3.0881 z m -1.174428,-0.8232 1.085297,0.011 q 0.498084,-0.011 0.875578,-0.2674 0.382738,-0.2569 0.566242,-0.7235 0.183505,-0.4719 0.125832,-1.0224 -0.04194,-0.3985 -0.288364,-0.6292 -0.241177,-0.2359 -0.671102,-0.2569 l -1.190156,-0.01 -0.503327,2.8941 z"
         style="font-style:italic;font-variant:normal;font-weight:normal;font-stretch:normal;font-size:10.73762512px;line-height:89.99999762%;font-family:'Roboto Condensed';-inkscape-font-specification:'Roboto Condensed, Italic';text-align:center;writing-mode:lr-tb;text-anchor:middle"
         id="path4161" />
      <path
         d="m 18.305838,1038.1429 -2.616248,0 -0.471868,2.7053 3.051415,0 -0.146803,0.8232 -3.984666,0 1.321231,-7.6338 3.942722,0 -0.146803,0.8284 -2.998986,0 -0.429924,2.4537 2.62149,0 -0.14156,0.8232 z"
         style="font-style:italic;font-variant:normal;font-weight:normal;font-stretch:normal;font-size:10.73762512px;line-height:89.99999762%;font-family:'Roboto Condensed';-inkscape-font-specification:'Roboto Condensed, Italic';text-align:center;writing-mode:lr-tb;text-anchor:middle"
         id="path4163" />
      <path
         d="m 23.176567,1039.6791 -2.495659,0 -0.922765,1.9923 -0.996166,0 3.706787,-7.6338 0.80742,0 1.064325,7.6338 -0.928008,0 -0.235934,-1.9923 z m -2.107678,-0.8284 2.008061,0 -0.403709,-3.4604 -1.604352,3.4604 z"
         style="font-style:italic;font-variant:normal;font-weight:normal;font-stretch:normal;font-size:10.73762512px;line-height:89.99999762%;font-family:'Roboto Condensed';-inkscape-font-specification:'Roboto Condensed, Italic';text-align:center;writing-mode:lr-tb;text-anchor:middle"
         id="path4165" />
      <path
         d="m 30.259834,1034.866 -1.945146,0 -1.179671,6.8054 -0.938494,0 1.179671,-6.8054 -1.945146,0 0.146804,-0.8284 4.828785,0 -0.146803,0.8284 z"
         style="font-style:italic;font-variant:normal;font-weight:normal;font-stretch:normal;font-size:10.73762512px;line-height:89.99999762%;font-family:'Roboto Condensed';-inkscape-font-specification:'Roboto Condensed, Italic';text-align:center;writing-mode:lr-tb;text-anchor:middle"
         id="path4167" />
      <path
         d="m 34.391303,1038.1429 -2.616247,0 -0.471868,2.7053 3.051415,0 -0.146804,0.8232 -3.984666,0 1.321232,-7.6338 3.942721,0 -0.146803,0.8284 -2.998985,0 -0.429925,2.4537 2.621491,0 -0.141561,0.8232 z"
         style="font-style:italic;font-variant:normal;font-weight:normal;font-stretch:normal;font-size:10.73762512px;line-height:89.99999762%;font-family:'Roboto Condensed';-inkscape-font-specification:'Roboto Condensed, Italic';text-align:center;writing-mode:lr-tb;text-anchor:middle"
         id="path4169" />
      <path
         d="m 40.441704,1037.8597 2.18108,-3.8221 1.106269,0 -2.97277,4.8445 -0.482354,2.7893 -0.938494,0 0.508569,-2.9046 -1.263558,-4.7292 1.017138,0 0.84412,3.8221 z"
         style="font-style:italic;font-variant:normal;font-weight:normal;font-stretch:normal;font-size:10.73762512px;line-height:89.99999762%;font-family:'Roboto Condensed';-inkscape-font-specification:'Roboto Condensed, Italic';text-align:center;writing-mode:lr-tb;text-anchor:middle"
         id="path4171" />
      <path
         d="m 45.647984,1041.7762 q -0.954222,-0.021 -1.49425,-0.6815 -0.534784,-0.6607 -0.550513,-1.8089 -0.0052,-0.3827 0.04194,-0.7602 l 0.220206,-1.4261 q 0.262149,-1.5205 1.027624,-2.3541 0.770718,-0.8389 1.939903,-0.8127 0.89655,0.021 1.420848,0.5925 0.524298,0.5715 0.608185,1.6253 l 0.01573,0.2831 q 0,0.388 -0.04719,0.7655 l -0.225449,1.4523 q -0.267392,1.5257 -1.027624,2.3384 -0.760232,0.8127 -1.929417,0.7864 z m 2.249239,-4.598 0.04719,-0.5086 q 0.05243,-0.9175 -0.24642,-1.3842 -0.29885,-0.4718 -0.922765,-0.4928 -0.781204,-0.026 -1.28453,0.561 -0.503327,0.582 -0.697317,1.7354 l -0.225448,1.5152 -0.0367,0.4247 q -0.05243,0.8966 0.24642,1.3894 0.304093,0.4876 0.928008,0.5086 1.536193,0.047 1.945146,-2.1444 l 0.24642,-1.6043 z"
         style="font-style:italic;font-variant:normal;font-weight:normal;font-stretch:normal;font-size:10.73762512px;line-height:89.99999762%;font-family:'Roboto Condensed';-inkscape-font-specification:'Roboto Condensed, Italic';text-align:center;writing-mode:lr-tb;text-anchor:middle"
         id="path4173" />
      <path
         d="m 55.368471,1034.0376 -0.917521,5.3741 q -0.152047,1.122 -0.854606,1.7616 -0.70256,0.6344 -1.766885,0.6134 -1.011895,-0.021 -1.536193,-0.6501 -0.519055,-0.6344 -0.398467,-1.7197 l 0.912279,-5.3793 0.93325,0 -0.912278,5.3845 q -0.0367,0.3146 -0.0052,0.5873 0.08913,0.9175 1.059082,0.9489 0.665859,0.026 1.080054,-0.346 0.414196,-0.3775 0.540027,-1.1272 l 0.922765,-5.4475 0.943736,0 z"
         style="font-style:italic;font-variant:normal;font-weight:normal;font-stretch:normal;font-size:10.73762512px;line-height:89.99999762%;font-family:'Roboto Condensed';-inkscape-font-specification:'Roboto Condensed, Italic';text-align:center;writing-mode:lr-tb;text-anchor:middle"
         id="path4175" />
      <path
         d="m 58.267839,1038.5833 -1.315988,0 -0.540027,3.0881 -0.938494,0 1.321231,-7.6338 2.018548,0.01 q 0.98568,0.032 1.47852,0.6345 0.492841,0.6029 0.393224,1.6148 -0.06816,0.7288 -0.456139,1.2583 -0.387981,0.5295 -1.053839,0.8284 l 0.886063,3.2244 -0.0052,0.068 -1.006652,0 -0.781204,-3.0881 z m -1.174428,-0.8232 1.085297,0.011 q 0.498083,-0.011 0.875578,-0.2674 0.382738,-0.2569 0.566242,-0.7235 0.183504,-0.4719 0.125831,-1.0224 -0.04194,-0.3985 -0.288364,-0.6292 -0.241177,-0.2359 -0.671101,-0.2569 l -1.190157,-0.01 -0.503326,2.8941 z"
         style="font-style:italic;font-variant:normal;font-weight:normal;font-stretch:normal;font-size:10.73762512px;line-height:89.99999762%;font-family:'Roboto Condensed';-inkscape-font-specification:'Roboto Condensed, Italic';text-align:center;writing-mode:lr-tb;text-anchor:middle"
         id="path4177" />
      <path
         d="m 10.551469,1049.3639 q 0.05767,-0.4771 -0.157289,-0.7969 -0.214963,-0.3251 -0.8913072,-0.6187 -0.6763446,-0.2936 -1.0328673,-0.603 -0.7497463,-0.6448 -0.6763446,-1.6253 0.073402,-0.9227 0.7497463,-1.5309 0.6815876,-0.6135 1.6410528,-0.5925 0.922765,0.021 1.457549,0.6764 0.534784,0.6501 0.466625,1.6358 l -0.943736,0 q 0.05243,-0.7236 -0.214962,-1.0958 -0.267393,-0.3775 -0.817906,-0.388 -0.5662415,-0.01 -0.9489791,0.346 -0.3827376,0.3513 -0.4456534,0.9333 -0.05243,0.4299 0.1992333,0.7602 0.2516631,0.3251 0.8755778,0.5925 0.6291574,0.2621 0.9856804,0.5557 0.786447,0.6449 0.697317,1.7407 -0.07864,0.9333 -0.75499,1.5205 -0.671101,0.5872 -1.6882396,0.5662 -0.9594655,-0.021 -1.5361935,-0.6711 -0.5767279,-0.6501 -0.5242981,-1.6515 l 0.9437366,0.01 q -0.057673,0.6764 0.2516631,1.0801 0.3093359,0.4037 0.9175217,0.4142 0.5714849,0.021 0.9699518,-0.3199 0.403709,-0.3408 0.477111,-0.9332 z"
         style="font-style:italic;font-variant:normal;font-weight:normal;font-stretch:normal;font-size:10.73762512px;line-height:89.99999762%;font-family:'Roboto Condensed';-inkscape-font-specification:'Roboto Condensed, Italic';text-align:center;writing-mode:lr-tb;text-anchor:middle"
         id="path4179" />
      <path
         d="m 17.917857,1044.5299 -1.945146,0 -1.179671,6.8053 -0.938493,0 1.179671,-6.8053 -1.945146,0 0.146803,-0.8284 4.828786,0 -0.146804,0.8284 z"
         style="font-style:italic;font-variant:normal;font-weight:normal;font-stretch:normal;font-size:10.73762512px;line-height:89.99999762%;font-family:'Roboto Condensed';-inkscape-font-specification:'Roboto Condensed, Italic';text-align:center;writing-mode:lr-tb;text-anchor:middle"
         id="path4181" />
      <path
         d="m 21.278607,1049.3429 -2.495659,0 -0.922764,1.9923 -0.996167,0 3.706788,-7.6337 0.807419,0 1.064325,7.6337 -0.928007,0 -0.235935,-1.9923 z m -2.107678,-0.8284 2.008062,0 -0.40371,-3.4603 -1.604352,3.4603 z"
         style="font-style:italic;font-variant:normal;font-weight:normal;font-stretch:normal;font-size:10.73762512px;line-height:89.99999762%;font-family:'Roboto Condensed';-inkscape-font-specification:'Roboto Condensed, Italic';text-align:center;writing-mode:lr-tb;text-anchor:middle"
         id="path4183" />
      <path
         d="m 26.317112,1048.2471 -1.315988,0 -0.540027,3.0881 -0.938493,0 1.321231,-7.6337 2.018547,0.01 q 0.985681,0.032 1.478521,0.6344 0.49284,0.603 0.393224,1.6149 -0.06816,0.7287 -0.45614,1.2583 -0.38798,0.5295 -1.053839,0.8284 l 0.886064,3.2244 -0.0052,0.068 -1.006652,0 -0.781205,-3.0881 z m -1.174427,-0.8231 1.085297,0.011 q 0.498083,-0.011 0.875578,-0.2674 0.382737,-0.2569 0.566242,-0.7236 0.183504,-0.4718 0.125831,-1.0223 -0.04194,-0.3985 -0.288364,-0.6292 -0.241177,-0.2359 -0.671101,-0.2569 l -1.190157,-0.01 -0.503326,2.8941 z"
         style="font-style:italic;font-variant:normal;font-weight:normal;font-stretch:normal;font-size:10.73762512px;line-height:89.99999762%;font-family:'Roboto Condensed';-inkscape-font-specification:'Roboto Condensed, Italic';text-align:center;writing-mode:lr-tb;text-anchor:middle"
         id="path4185" />
      <path
         d="m 34.19207,1044.5299 -1.945145,0 -1.179671,6.8053 -0.938494,0 1.179671,-6.8053 -1.945146,0 0.146803,-0.8284 4.828786,0 -0.146804,0.8284 z"
         style="font-style:italic;font-variant:normal;font-weight:normal;font-stretch:normal;font-size:10.73762512px;line-height:89.99999762%;font-family:'Roboto Condensed';-inkscape-font-specification:'Roboto Condensed, Italic';text-align:center;writing-mode:lr-tb;text-anchor:middle"
         id="path4187" />
      <path
         d="m 35.612917,1048.3467 -0.519055,2.9885 -0.938494,0 1.321232,-7.6337 2.301668,0.01 q 0.938494,0.032 1.447063,0.6659 0.508569,0.6291 0.419439,1.6201 -0.09437,1.0905 -0.781205,1.7249 -0.68683,0.6344 -1.766884,0.6344 l -1.483764,-0.01 z m 0.141561,-0.8231 1.378904,0.011 q 0.519055,0 0.901792,-0.2674 0.382738,-0.2726 0.560999,-0.7707 0.178262,-0.5033 0.115346,-1.0172 -0.05243,-0.4246 -0.29885,-0.6711 -0.24642,-0.2516 -0.655373,-0.2726 l -1.483763,-0.01 -0.519055,2.9937 z"
         style="font-style:italic;font-variant:normal;font-weight:normal;font-stretch:normal;font-size:10.73762512px;line-height:89.99999762%;font-family:'Roboto Condensed';-inkscape-font-specification:'Roboto Condensed, Italic';text-align:center;writing-mode:lr-tb;text-anchor:middle"
         id="path4189" />
      <path
         d="m 43.089408,1049.3429 -2.495659,0 -0.922765,1.9923 -0.996166,0 3.706787,-7.6337 0.80742,0 1.064325,7.6337 -0.928008,0 -0.235934,-1.9923 z m -2.107678,-0.8284 2.008061,0 -0.403709,-3.4603 -1.604352,3.4603 z"
         style="font-style:italic;font-variant:normal;font-weight:normal;font-stretch:normal;font-size:10.73762512px;line-height:89.99999762%;font-family:'Roboto Condensed';-inkscape-font-specification:'Roboto Condensed, Italic';text-align:center;writing-mode:lr-tb;text-anchor:middle"
         id="path4191" />
      <path
         d="m 50.120246,1050.381 q -0.220205,0.2989 -0.508569,0.5086 -0.775962,0.5662 -1.861259,0.5505 -0.980437,-0.011 -1.541436,-0.6658 -0.560999,-0.6554 -0.592457,-1.7722 -0.01049,-0.3827 0.0367,-0.7655 l 0.235934,-1.5047 q 0.241177,-1.51 0.959466,-2.3174 0.754989,-0.8441 1.997575,-0.8179 0.985681,0.031 1.504736,0.6501 0.524298,0.6187 0.503326,1.6988 l -0.933251,-0.01 q 0,-0.7759 -0.293606,-1.1377 -0.288364,-0.3618 -0.828391,-0.3775 -0.781205,-0.037 -1.279288,0.5191 -0.498083,0.5557 -0.692073,1.7721 l -0.241177,1.5991 -0.03146,0.4299 0,0.3618 q 0.08389,1.489 1.2321,1.51 0.414196,0.01 0.739261,-0.1206 0.325064,-0.1363 0.644886,-0.3828 l 0.319822,-1.7616 -1.357932,0 0.146803,-0.8179 2.280697,0 -0.44041,2.8469 z"
         style="font-style:italic;font-variant:normal;font-weight:normal;font-stretch:normal;font-size:10.73762512px;line-height:89.99999762%;font-family:'Roboto Condensed';-inkscape-font-specification:'Roboto Condensed, Italic';text-align:center;writing-mode:lr-tb;text-anchor:middle"
         id="path4193" />
      <path
         d="m 55.646349,1047.8067 -2.616247,0 -0.471868,2.7054 3.051415,0 -0.146804,0.8231 -3.984665,0 1.321231,-7.6337 3.942721,0 -0.146803,0.8284 -2.998985,0 -0.429925,2.4537 2.621491,0 -0.141561,0.8231 z"
         style="font-style:italic;font-variant:normal;font-weight:normal;font-stretch:normal;font-size:10.73762512px;line-height:89.99999762%;font-family:'Roboto Condensed';-inkscape-font-specification:'Roboto Condensed, Italic';text-align:center;writing-mode:lr-tb;text-anchor:middle"
         id="path4195" />
    </g>
    <rect
       style="fill:#1e1e1e;fill-opacity:1;stroke:none;stroke-width:2;stroke-linecap:round;stroke-linejoin:miter;stroke-miterlimit:4;stroke-dasharray:none;stroke-dashoffset:0;stroke-opacity:1"
       id="rect4154"
       width="2.5034394"
       height="33.575096"
       x="31.24275"
       y="992.32495"
       ry="0" />
    <rect
       ry="0"
       y="-49.282017"
       x="1007.8608"
       height="33.575096"
       width="2.5034394"
       id="rect4156"
       style="fill:#1e1e1e;fill-opacity:1;stroke:none;stroke-width:2;stroke-linecap:round;stroke-linejoin:miter;stroke-miterlimit:4;stroke-dasharray:none;stroke-dashoffset:0;stroke-opacity:1"
       transform="matrix(0,1,-1,0,0,0)" />
  </g>
</svg>
