<?xml version="1.0" encoding="UTF-8" standalone="no"?>
<!-- Created with Inkscape (http://www.inkscape.org/) -->

<svg
   xmlns:dc="http://purl.org/dc/elements/1.1/"
   xmlns:cc="http://creativecommons.org/ns#"
   xmlns:rdf="http://www.w3.org/1999/02/22-rdf-syntax-ns#"
   xmlns:svg="http://www.w3.org/2000/svg"
   xmlns="http://www.w3.org/2000/svg"
   xmlns:sodipodi="http://sodipodi.sourceforge.net/DTD/sodipodi-0.dtd"
   xmlns:inkscape="http://www.inkscape.org/namespaces/inkscape"
   width="48"
   height="48"
   viewBox="0 0 48 48.000001"
   id="svg4136"
   version="1.1"
   inkscape:version="0.91 r13725"
   sodipodi:docname="sound-on.svg">
  <defs
     id="defs4138" />
  <sodipodi:namedview
     id="base"
     pagecolor="#ffffff"
     bordercolor="#666666"
     borderopacity="1.0"
     inkscape:pageopacity="0.0"
     inkscape:pageshadow="2"
     inkscape:zoom="7.9195959"
     inkscape:cx="14.958299"
     inkscape:cy="27.328646"
     inkscape:document-units="px"
     inkscape:current-layer="layer1"
     showgrid="false"
     units="px"
     inkscape:window-width="1280"
     inkscape:window-height="961"
     inkscape:window-x="-8"
     inkscape:window-y="-8"
     inkscape:window-maximized="1" />
  <metadata
     id="metadata4141">
    <rdf:RDF>
      <cc:Work
         rdf:about="">
        <dc:format>image/svg+xml</dc:format>
        <dc:type
           rdf:resource="http://purl.org/dc/dcmitype/StillImage" />
        <dc:title />
      </cc:Work>
    </rdf:RDF>
  </metadata>
  <g
     inkscape:label="Calque 1"
     inkscape:groupmode="layer"
     id="layer1"
     transform="translate(0,-1004.3622)">
    <path
       style="fill:#000000;fill-rule:evenodd;stroke:none;stroke-width:1px;stroke-linecap:butt;stroke-linejoin:miter;stroke-opacity:1"
       d="m 17.252308,1024.7915 -5.856525,0 0,7.9714 5.807721,0 6.751272,6.7512 0,-21.2623 z"
       id="path4695"
       inkscape:connector-curvature="0"
       sodipodi:nodetypes="ccccccc" />
    <path
       style="opacity:1;fill:#000000;fill-opacity:1;stroke:none;stroke-width:2;stroke-linecap:round;stroke-linejoin:miter;stroke-miterlimit:4;stroke-dasharray:none;stroke-dashoffset:0;stroke-opacity:1"
       d="m 34.355058,1017.9221 -1.187803,0.8755 a 25.309724,18.65454 0 0 1 3.699155,9.6784 25.309724,18.65454 0 0 1 -3.685822,9.6498 l 1.199922,0.9023 a 26.955248,19.867374 0 0 0 4.130643,-10.5521 26.955248,19.867374 0 0 0 -4.156095,-10.5539 z m -2.559834,1.8867 -1.204771,0.888 a 21.788545,16.059253 0 0 1 2.754973,7.7792 21.788545,16.059253 0 0 1 -2.704068,7.7434 l 1.178106,0.8844 a 23.42912,17.26844 0 0 0 3.165855,-8.6278 23.42912,17.26844 0 0 0 -3.190095,-8.6672 z m -2.529534,1.8644 -1.037509,0.7647 a 18.587301,13.699776 0 0 1 1.915028,6.0381 18.587301,13.699776 0 0 1 -1.876242,5.9594 l 1.050841,0.7888 a 19.986839,14.731305 0 0 0 2.22531,-6.7482 19.986839,14.731305 0 0 0 -2.277428,-6.8028 z m -2.330759,1.7179 -0.781767,0.5762 a 15.841126,11.675707 0 0 1 1.244768,4.5087 15.841126,11.675707 0 0 1 -1.185378,4.4158 l 0.770859,0.5797 a 16.871044,12.434808 0 0 0 1.443543,-4.9955 16.871044,12.434808 0 0 0 -1.492025,-5.0849 z"
       id="circle4705"
       inkscape:connector-curvature="0" />
  </g>
</svg>
