<?xml version="1.0" encoding="UTF-8" standalone="no"?>
<!-- Created with Inkscape (http://www.inkscape.org/) -->

<svg
   xmlns:dc="http://purl.org/dc/elements/1.1/"
   xmlns:cc="http://creativecommons.org/ns#"
   xmlns:rdf="http://www.w3.org/1999/02/22-rdf-syntax-ns#"
   xmlns:svg="http://www.w3.org/2000/svg"
   xmlns="http://www.w3.org/2000/svg"
   xmlns:sodipodi="http://sodipodi.sourceforge.net/DTD/sodipodi-0.dtd"
   xmlns:inkscape="http://www.inkscape.org/namespaces/inkscape"
   width="48"
   height="48"
   id="svg2"
   version="1.1"
   inkscape:version="0.48.4 r9939"
   sodipodi:docname="search.svg">
  <defs
     id="defs4" />
  <sodipodi:namedview
     id="base"
     pagecolor="#ffffff"
     bordercolor="#666666"
     borderopacity="1.0"
     inkscape:pageopacity="0.0"
     inkscape:pageshadow="2"
     inkscape:zoom="31.678384"
     inkscape:cx="23.749661"
     inkscape:cy="23.443194"
     inkscape:document-units="px"
     inkscape:current-layer="layer1"
     showgrid="true"
     inkscape:window-width="1280"
     inkscape:window-height="1000"
     inkscape:window-x="0"
     inkscape:window-y="24"
     inkscape:window-maximized="1">
    <inkscape:grid
       type="xygrid"
       id="grid2993"
       empspacing="5"
       visible="true"
       enabled="true"
       snapvisiblegridlinesonly="true" />
  </sodipodi:namedview>
  <metadata
     id="metadata7">
    <rdf:RDF>
      <cc:Work
         rdf:about="">
        <dc:format>image/svg+xml</dc:format>
        <dc:type
           rdf:resource="http://purl.org/dc/dcmitype/StillImage" />
        <dc:title />
      </cc:Work>
    </rdf:RDF>
  </metadata>
  <g
     inkscape:label="Layer 1"
     inkscape:groupmode="layer"
     id="layer1"
     transform="translate(0,-1004.3622)">
    <path
       style="fill:#ffffff;fill-opacity:1;stroke:none"
       d="m 22.724933,1020.3866 c -3.141211,0 -5.687665,2.5464 -5.687665,5.6877 0,3.1412 2.546454,5.6876 5.687665,5.6876 0.918169,0 1.756104,-0.2535 2.523903,-0.6398 l 5.403282,5.4032 2.310614,-2.3105 -5.332187,-5.3322 c 0.481906,-0.8354 0.782055,-1.7748 0.782055,-2.8083 0,-3.1413 -2.546455,-5.6877 -5.687667,-5.6877 z m 0,2.8793 c 1.543962,0 2.808286,1.2644 2.808286,2.8084 0,1.5439 -1.264324,2.8083 -2.808286,2.8083 -1.54396,0 -2.808284,-1.2644 -2.808284,-2.8083 0,-1.544 1.264324,-2.8084 2.808284,-2.8084 z"
       id="rect2988"
       inkscape:connector-curvature="0" />
  </g>
</svg>
